<svg xmlns="http://www.w3.org/2000/svg" xmlns:svg="http://www.w3.org/2000/svg" id="svg7384" width="16.036" height="16" version="1.1"><metadata id="metadata90"/><title id="title9167">elementary Symbolic Icon Theme</title><path style="color:#fbc02d;clip-rule:nonzero;display:inline;overflow:visible;visibility:visible;opacity:1;isolation:auto;mix-blend-mode:normal;color-interpolation:sRGB;color-interpolation-filters:linearRGB;solid-color:#000;solid-opacity:1;fill:#fbc02d;fill-opacity:1;fill-rule:nonzero;stroke:none;stroke-width:1;stroke-linecap:butt;stroke-linejoin:miter;stroke-miterlimit:4;stroke-dasharray:none;stroke-dashoffset:0;stroke-opacity:1;marker:none;color-rendering:auto;image-rendering:auto;shape-rendering:auto;text-rendering:auto;enable-background:accumulate" id="rect4162-1-2-3" d="M 2.5736392,2 C 1.7118614,2 1.0180836,2.7008571 1.0180836,3.5714286 l 0,7.8571434 C 1.0180836,12.299143 1.7118614,13 2.5736392,13 l 10.8888888,0 c 0.861779,0 1.555556,-0.700857 1.555556,-1.571428 l 0,-7.8571434 C 15.018084,2.7008571 14.324307,2 13.462528,2 Z"/><path style="color:#bebebe;clip-rule:nonzero;display:inline;overflow:visible;visibility:visible;opacity:.5;isolation:auto;mix-blend-mode:normal;color-interpolation:sRGB;color-interpolation-filters:linearRGB;solid-color:#000;solid-opacity:1;fill:#403757;fill-opacity:1;fill-rule:nonzero;stroke:none;stroke-width:1;stroke-linecap:butt;stroke-linejoin:miter;stroke-miterlimit:4;stroke-dasharray:none;stroke-dashoffset:0;stroke-opacity:1;marker:none;color-rendering:auto;image-rendering:auto;shape-rendering:auto;text-rendering:auto;enable-background:accumulate" id="rect4194-8-1" d="m 4,5 0,1 8,0 0,-1 -8,0 z m 0,2 0,1 8,0 0,-1 -8,0 z m 0,2 0,1 8,0 0,-1 -8,0 z"/><path id="path3482-5-7-8" d="M 12.5 7 C 9.462444 7 7 9.4624441 7 12.5 C 7 12.668742 7.010516 12.835131 7.0253906 13 L 13.462891 13 C 14.32467 13 15.017578 12.298305 15.017578 11.427734 L 15.017578 7.6132812 C 14.262633 7.223445 13.408225 7 12.5 7 z" style="color:#bebebe;clip-rule:nonzero;display:inline;overflow:visible;visibility:visible;opacity:.05;isolation:auto;mix-blend-mode:normal;color-interpolation:sRGB;color-interpolation-filters:linearRGB;solid-color:#000;solid-opacity:1;fill:maroon;fill-opacity:1;fill-rule:nonzero;stroke:none;stroke-width:1;stroke-linecap:butt;stroke-linejoin:miter;stroke-miterlimit:4;stroke-dasharray:none;stroke-dashoffset:0;stroke-opacity:1;marker:none;color-rendering:auto;image-rendering:auto;shape-rendering:auto;text-rendering:auto;enable-background:accumulate"/><path id="path3482-5-7" d="M 12.5 8 C 10.014727 8 8 10.014727 8 12.5 C 8 12.671403 8.0321217 12.83358 8.0507812 13 L 13.462891 13 C 14.32467 13 15.017578 12.298305 15.017578 11.427734 L 15.017578 8.7695312 C 14.298925 8.2833774 13.432966 8 12.5 8 z" style="color:#bebebe;clip-rule:nonzero;display:inline;overflow:visible;visibility:visible;opacity:.1;isolation:auto;mix-blend-mode:normal;color-interpolation:sRGB;color-interpolation-filters:linearRGB;solid-color:#000;solid-opacity:1;fill:maroon;fill-opacity:1;fill-rule:nonzero;stroke:none;stroke-width:1;stroke-linecap:butt;stroke-linejoin:miter;stroke-miterlimit:4;stroke-dasharray:none;stroke-dashoffset:0;stroke-opacity:1;marker:none;color-rendering:auto;image-rendering:auto;shape-rendering:auto;text-rendering:auto;enable-background:accumulate"/><path style="color:#bebebe;display:inline;overflow:visible;visibility:visible;fill:#ef2929;fill-opacity:1;fill-rule:nonzero;stroke:none;stroke-width:1.90939796;marker:none;enable-background:accumulate" id="path3482-5" d="m 12.50002,8.9965178 c -1.93299,0 -3.5,1.5670102 -3.5,3.5000002 0,1.93299 1.56701,3.5 3.5,3.5 1.93299,0 3.5,-1.56701 3.5,-3.5 0,-1.93299 -1.56701,-3.5000002 -3.5,-3.5000002 z" class="error"/><path style="color:#bebebe;display:inline;overflow:visible;visibility:visible;fill:#fff;fill-opacity:1;fill-rule:nonzero;stroke:none;stroke-width:1.90939796;marker:none;enable-background:accumulate" id="path3482-5-0" d="m 10.00002,11.965268 5,0 0,1.03125 -5,0 z" class="error"/></svg>